<svg xmlns="http://www.w3.org/2000/svg" width="74.553" height="218.546" preserveAspectRatio="xMidYMax" viewBox="0 0 74.553 168.546"><path d="M32.08 0h-2.74c-5.114 0-8.69 3.613-8.38 9.157l-.02.033c0 2.475 2.747 5.84 2.747 7.41l.435-.018.57-.023.415-1.073.36-.93s.095-.145.235-.38c.086-.137.188-.31.298-.494.45-.774 1.022-1.852 1.022-2.342 0-.4.132-.9.39-1.31.277-.44.7-.775 1.278-.775 1.53 0 2.02 1.843 2.02 1.843h.83s-.11-1.636 1.37-2.74c1.34-1.002 2.18-.377 2.402-3.077.02-.254.038-.534.048-.857l.82-.075s1.972.016 2.062 4.236l.175-1.307C39.405 4.945 36.775 0 32.08 0M20.105 70.723h19.24l.02-8.984c-.083.036-.17.09-.25.127-1.98.865-4.104-.346-5.635-1.627-.904-.64-1.733-1.283-2.48-1.93-3.983-3.435-5.89-6.896-6.81-9.772-2.46-1.75-4.182-5.766-4.182-10.442 0-6.286 3.107-11.38 6.938-11.38 3.832 0 6.938 5.094 6.938 11.38 0 1.68-.074 3.267-.29 4.702 1.675 2.995 3.343 6.873 4.46 10.006.426-.21.87-.43 1.33-.668l.02-10.017-2.425-5.41-.003-.005c-.01-.018-1.737-3.247-3.688-6.332-.384-.69-.803-1.34-1.263-1.923-1.406-1.78-3.2-2.94-5.616-2.74-5.146.425-7.645 7.48-8.75 12.24-.178 1.13-.28 2.303-.28 3.516 0 9.488 2.93 10.953 2.93 19.253 0 4.44.834 7.2-.206 10.002m52.293 60.805c-.86-.29-3.896-1.89-5.92-5.346-.937-1.602-1.566-4.65-3.163-5.53-.074-.04-.15-.085-.228-.116-1.767-.697-2.267 1.365-4.75.383-1.948-.77-.278-2.514-2.405-3.21-.03-.013-.067 0-.1-.005-1.69-.25-5.764 6.343-4.14 10.108l5.55 2.195c-.5-.197 2.073-.133 2.9.195.827.326 1.12 1.396 1.924 1.715l4.21 1.666 3.686 1.457c6.162 1.675 5.21-2.573 2.437-3.51m-32.174 32.875c-.9-.135-4.172-1.168-6.778-4.205-1.263-1.48-2.477-4.58-4.343-4.955-.17-.033-.32-.04-.463-.037-1.44.03-1.763 1.736-4.144 1.258-2.056-.412-.723-2.422-2.94-2.73-.136-.02-.284.027-.434.105-1.71.86-4.065 7.39-1.94 10.592l5.852 1.172c-.525-.104 2.02-.498 2.89-.324.872.176 1.35 1.176 2.2 1.346.848.168 4.438.89 4.438.89l3.883.776c6.364.55 4.672-3.46 1.777-3.888M53.474 70.87c-1.27.025-2.498.042-3.664.055-1.956.02-3.735.02-5.3.017-2.257-.007-4.048-.032-5.165-.053-.024-.004-.043-.006-.066-.006.04-.105.064-.16.064-.16h-19.24c-.01.018-.012.04-.02.06-.064.2-.29.933-.547 2.025-.87 3.677-2.094 11.392 1.402 16.273 4.72 6.59 9.28 18.553 9.28 18.553l.984-.19 14.307-2.755.167-.03s-.1-1.326-.323-3.396c-.3-2.79-.828-6.932-1.648-11.04l.025-.003 1.45-.12 6.852-.57 2.808-.235.003-1.274.005-1.455.004-1.773.037-13.866v-.087l-1.417.03" fill="#666"/><path fill="#E5E5E5" d="M52.034 89.527l-6.854.573c.1.443.193.778.24.918.008.014.01.024.013.034l1.638 4.896c.11.332.47.51.804.398.33-.11.51-.47.4-.8l-1.24-3.705c.186.058.403.11.638.148l1.734 5.194c.11.33.472.51.802.4.333-.112.514-.47.403-.804L49 91.97c.178-.04.355-.095.53-.167L51.273 97c.11.33.47.51.798.402.336-.113.516-.473.403-.805l-1.862-5.572c.146-.157.28-.336.407-.54l1.816 5.435c.112.332.47.512.802.398.334-.11.51-.47.4-.8l-2-5.99zm4.053-1.537c.17-.303.063-.688-.24-.86l-.994-.563c-.002 0-.002-.002-.004-.004l-.007 1.457.38.213c.303.17.688.064.863-.242"/><path fill="#9CD68E" d="M53.474 70.87c-1.167-.022-2.397 0-3.664.055 1.166-.013 2.394-.03 3.664-.055"/><path fill="#E5E5E5" d="M69.053 77.357c-.037-.41-.065-.636-.067-.665l-.003-.015c-.16-.8-.587-1.57-1.33-2.203-2.332-1.992-6.812-3.27-12.762-3.55l-.036 13.866c1.53-.376 3.105-.78 4.715-1.218-1.827 3.262-3.518 7.46-3.734 13.117-.263 6.924.138 14.916-.005 21.01.034.004.07-.008.104.004 2.127.697.457 2.44 2.406 3.21 2.48.983 2.98-1.08 4.748-.382.078.03.154.074.228.115.85-7.168 2.302-18.72 3.08-20.54.46-1.06 1.303-5.21 2.15-9.8 1.03-5.595.678-11.077.507-12.95m-42.64-51.65c2.418-.2 4.21.964 5.616 2.744.46.584.88 1.23 1.262 1.924 1.95 3.085 3.676 6.314 3.687 6.333l-4.07-9.075-.036-.914.3-6.015s1.98-.242 3.09-.392c1.11-.15 1.28-.315 1.302-1.59.02-1.27-.336-1.073.082-1.625.415-.552.018-.822.018-.822.443.104.52-.924.52-.924s-.802-.625.38-.645c1.183-.017.823-.838.654-1.178-.167-.34-1.137-1.527-1.006-3.514.034-.526.037-.99.03-1.425C38.15 4.366 36.18 4.35 36.18 4.35l-.817.077c-.01.322-.026.602-.048.857-.225 2.702-1.066 2.077-2.406 3.08-1.48 1.105-1.37 2.738-1.37 2.738h-.83s-.488-1.84-2.02-1.84c-.578 0-1 .335-1.278.772-.258.41-.39.91-.39 1.312 0 .49-.572 1.567-1.023 2.34-.11.19-.21.36-.297.498-.14.232-.236.378-.236.378l-.36.93-.413 1.07-.57.024c.075.418.175 1.202.175 2.46l-2.57 7.85c-1.464 2.804-3.36 6.575-4.066 11.06 1.103-4.762 3.6-11.818 8.75-12.244"/><path fill="#E5E5E5" d="M31.206 107.447c.705 1.79 1.46 3.625 2.263 5.496-3.04 3.242-6.714 7.732-7.94 14.73-1.383 7.87-2.803 19.077-4.408 26.165.15-.078.3-.125.436-.105 2.217.31.883 2.318 2.937 2.73 2.382.48 2.703-1.227 4.143-1.258 3.245-9.404 9.967-26.62 10.71-28.738.59-1.69 3.02-6.027 4.994-12.227.75-1.318 1.26-4.805 1.17-9.55l-14.308 2.757z"/><path fill="#9CD68E" d="M43.708 90.223c.82 4.11 1.35 8.252 1.648 11.04-.24-3.335-.753-7.09-1.624-11.04h-.024z"/><path fill="#E5E5E5" d="M38.054 52.803c-1.116-3.133-2.784-7.01-4.457-10.006.215-1.436.29-3.023.29-4.702 0-6.286-3.107-11.38-6.938-11.38-3.834 0-6.94 5.094-6.94 11.38 0 4.677 1.72 8.692 4.18 10.442.923 2.876 2.827 6.338 6.81 9.772.75.645 1.578 1.29 2.48 1.93 1.53 1.28 3.658 2.49 5.636 1.626.083-.037.168-.09.25-.13l-.02 8.985s-.027.057-.066.163c.024 0 .043.002.067.003 1.117.02 2.908.046 5.165.054-1.403-3.14-2.97-6.477-4.546-9.512 6.79-3.646 13.43-14.97 17.814-17.788 1.707-.413 4.007-2.803 4.36-3.226.008-.013.015-.022.02-.027l3.3-3.973c.225-.27.186-.666-.084-.893-.27-.22-.667-.186-.89.084L61.99 38.61c-.05-.186-.12-.397-.213-.618l3.5-4.21c.222-.27.184-.67-.082-.892-.27-.224-.67-.19-.896.08l-3.237 3.9c-.13-.132-.27-.25-.424-.363l3.502-4.22c.22-.27.187-.666-.082-.89-.27-.224-.67-.187-.89.082L59.41 36c-.21-.038-.433-.06-.673-.062l3.66-4.406c.224-.27.186-.67-.085-.893-.27-.227-.666-.19-.89.08l-5.188 6.243c-.216.067-1.354.72-1.54-1.01l-.096-2.4c-.014-.35-.308-.62-.656-.606-.35.015-.62.31-.607.66l.044 1.142c-.098 2.59-.124 3.683-.158 4.656 0 0-.396 4.472-9.108 10.016-1.716 1.09-3.298 1.976-4.73 2.713-.46.237-.904.458-1.33.667"/></svg>