<svg xmlns="http://www.w3.org/2000/svg" width="74.553" height="218.546" preserveAspectRatio="xMidYMax" viewBox="0 0 74.553 168.546"><path d="M32.08 0h-2.74c-5.112 0-8.687 3.612-8.378 9.156l-.02.033c0 2.474 2.748 5.84 2.748 7.41l.434-.02.57-.024.416-1.07.358-.93s.096-.147.236-.377c.086-.14.188-.31.298-.5.45-.772 1.023-1.852 1.023-2.34 0-.4.13-.9.388-1.31.28-.438.7-.773 1.28-.773 1.53 0 2.02 1.84 2.02 1.84h.83s-.11-1.636 1.37-2.738c1.34-1.005 2.18-.377 2.402-3.08.02-.255.037-.535.048-.854l.817-.077s1.973.014 2.064 4.235l.174-1.308C39.406 4.945 36.776 0 32.08 0m-.717 47.936c-1.025.974-2.444 1.54-4.416 1.54-1.983 0-3.77-1.374-5.034-3.565-1.065 1.43-2.26 2.894-3.443 4.25.833 3.167 1.84 5.69 1.84 10.56 0 4.442.834 7.2-.205 10.004h19.24l.024-11.717.033-16.317.002-.57-2.427-5.412-.002-.002c-.01-.018-1.735-3.248-3.687-6.33-.384-.693-.803-1.34-1.263-1.924v-.003c-1.406-1.78-3.198-2.94-5.616-2.74-3.16.26-5.317 3.02-6.77 6.213.716-.707 1.524-1.32 2.37-1.82 1.257-2.09 3.004-3.387 4.935-3.387 3.83 0 6.94 5.095 6.94 11.38 0 .968-.03 1.902-.09 2.8-.202 3-.833 5.522-2.433 7.04m25.774 106.182c-.806-.418-3.565-2.46-5.042-6.18-.686-1.727-.847-4.834-2.29-5.945-.067-.054-.137-.106-.21-.15-1.642-.958-2.446 1.006-4.752-.34-1.81-1.058.104-2.526-1.892-3.538-.03-.015-.07-.01-.102-.02-1.635-.5-6.656 5.398-5.62 9.364l5.152 3.01c-.463-.27 2.073.18 2.84.63.77.45.898 1.55 1.644 1.986l3.91 2.282 3.42 1.997c5.84 2.588 5.542-1.755 2.942-3.1M28.18 164.647c-.85-.314-3.84-2-5.763-5.51-.932-1.71-1.48-4.992-3.23-5.744-.156-.066-.303-.105-.444-.132-1.417-.263-2.08 1.338-4.313.38-1.925-.828-.204-2.52-2.312-3.28-.13-.046-.284-.03-.447.014-1.85.488-5.5 6.396-4.08 9.966l5.484 2.353c-.492-.21 2.078-.072 2.894.278.817.35 1.082 1.43 1.875 1.77.795.34 4.16 1.787 4.16 1.787l3.64 1.562c6.114 1.85 5.285-2.423 2.54-3.44m11.472-90.356c-.206-1.288-.285-2.16-.312-2.72-.03-.605.002-.854.002-.854h-19.24c-.01.022-.012.043-.02.064-.065.204-.29.934-.548 2.022-.87 3.68-2.093 11.396 1.402 16.275.78 1.093 1.557 2.33 2.31 3.64l6.97 14.915.985-.19 13.276-2.556 1.198-.23s-.44-2.794-1.11-6.62l-.035-.217v-.002l5.193 1.676.436-.69 6.803-10.82.185-.295c-3.4-4.723-13.53-11.03-17.497-13.395" fill="#666"/><path fill="#E5E5E5" d="M12.153 92.258l-.54-1.01c-1.037-2.372-1.49-3.37-1.886-4.262-.223-.5-.463-.92-.714-1.275h.003s3.768-19.22 3.79-29.922c1.233-.88 3.43-3.064 5.663-5.626 1.182-1.358 2.376-2.82 3.44-4.25 1.266 2.19 3.05 3.565 5.035 3.565 1.972 0 3.39-.566 4.416-1.54 1.6-1.517 2.23-4.04 2.436-7.04.06-.897.09-1.833.09-2.8 0-6.287-3.11-11.382-6.94-11.382-1.93 0-3.678 1.298-4.935 3.387-.845.502-1.653 1.113-2.37 1.822 1.453-3.192 3.61-5.954 6.77-6.215 2.42-.2 4.213.96 5.617 2.74v.002c.46.583.88 1.23 1.264 1.922 1.95 3.084 3.678 6.313 3.688 6.33l-4.07-9.072-.035-.917.3-6.013s1.98-.244 3.09-.394c1.11-.15 1.28-.315 1.3-1.59.02-1.272-.334-1.075.084-1.625.414-.553.02-.824.02-.824.44.104.517-.923.517-.923s-.8-.624.38-.643c1.183-.018.824-.84.657-1.18-.17-.337-1.14-1.525-1.007-3.512.035-.528.04-.992.03-1.425-.093-4.223-2.065-4.238-2.065-4.238l-.816.077c-.01.32-.026.6-.048.856-.222 2.7-1.064 2.072-2.404 3.075-1.48 1.104-1.37 2.74-1.37 2.74h-.827s-.49-1.84-2.02-1.84c-.58 0-1.003.334-1.28.772-.258.408-.39.908-.39 1.312 0 .487-.57 1.565-1.02 2.34-.11.187-.214.357-.3.497-.14.23-.234.376-.234.376l-.36.93-.414 1.07-.57.025c.075.418.176 1.203.176 2.46l-2.57 7.85c-.815 1.563-1.765 3.43-2.57 5.553-.866.973-1.57 2.084-1.98 3.32-.022.06-.033.115-.05.175-3.394 2.45-9.41 8.236-11.373 20.612v.03c-.48 1.334-.843 2.813-.968 4.45-.594 7.704.285 18.853-1.004 24.127-1.356 1.115-2.387 4.267-2.52 4.802-.002.013-.004.026-.008.033L.02 95.007c-.083.34.125.68.466.766.34.084.682-.123.766-.462l.938-3.792c.126.145.28.306.46.465l-1.315 5.313c-.082.337.127.684.464.766.34.085.684-.12.77-.462l1.215-4.92c.17.062.35.11.538.144l-1.32 5.324c-.083.34.124.684.46.767.344.084.686-.123.77-.463l1.41-5.705c.205-.058.415-.135.633-.238L4.9 98.07c-.083.34.124.685.464.766.34.086.684-.122.77-.46l1.944-7.88c.164-.156.904-1.237 1.825.238l1.132 2.115c.166.31.55.425.858.262.307-.167.423-.55.258-.858m44.818-4.27l-6.805 10.82c1.467.666 2.98 1.33 4.538 1.99-3.393 4.113-7.393 9.736-8.67 16.38-1.306 6.808-2.12 14.77-3.18 20.77.032.01.07.006.1.02 1.997 1.01.083 2.48 1.894 3.537 2.305 1.35 3.11-.614 4.75.345.074.042.144.096.21.147 1.923-6.956 5.105-18.157 6.15-19.836.613-.98 2.074-4.954 3.607-9.366 2.3-6.63 4.23-12.61 4.23-12.61.954-2.906-1.877-7.47-6.82-12.193"/><path fill="#9CD68E" d="M39.345 70.722s-.03.25-.002.85l.002-.85zm-19.808 2.086c.258-1.09.482-1.82.547-2.02-.24.66-.418 1.33-.547 2.02"/><path fill="#E5E5E5" d="M71.044 31.62c-.306-.172-.69-.063-.86.243l-1.9 3.412c-.085-.172-.19-.37-.322-.57l2.667-4.78c.165-.305.054-.692-.248-.86-.308-.172-.692-.064-.865.244l-2.464 4.425c-.15-.105-.31-.197-.483-.28l2.668-4.79c.168-.305.06-.69-.243-.86-.31-.17-.693-.06-.863.245l-2.86 5.135c-.212.002-.437.02-.674.062l2.79-5.005c.17-.306.06-.69-.247-.86-.304-.173-.69-.06-.86.243l-3.95 7.09c-.197.108-1.194.956-1.697-.71l-.535-2.34c-.08-.34-.417-.553-.76-.476-.342.075-.553.417-.476.76l.256 1.112c.38 2.562.556 3.644.7 4.607 0 0 .433 4.467-7.112 11.52-1.962 1.83-3.765 3.27-5.337 4.435-2.128-3.655-5.355-8.33-7.96-10.937l-.036 16.315c1.374.97 2.984 1.906 4.864 2.772 1.74.978 4.055 1.778 5.84.564 6.392-4.35 11.046-17.62 14.994-21.348 1.603-.72 3.425-3.49 3.694-3.973.006-.014.01-.024.016-.03l2.515-4.513c.166-.303.057-.688-.25-.86"/><path fill="#E5E5E5" d="M31.206 107.446c.615 1.56 1.266 3.156 1.954 4.78-3.773 2.575-8.897 6.254-11.784 13.45-2.974 7.42-6.674 18.094-9.706 24.696.163-.043.317-.06.447-.013 2.108.755.388 2.45 2.313 3.276 2.23.96 2.896-.643 4.312-.377 5.114-8.535 15.24-23.995 16.403-25.915.926-1.53 4.198-5.275 7.41-10.934.804-1.41 1.705-5.763 1.926-11.522l-13.273 2.556z"/></svg>