<svg xmlns="http://www.w3.org/2000/svg" width="93.21" height="182.471" viewBox="0 0 93.21 182.471"><path d="M48.94 16.606h-2.743c-2.71 0-5.527 3.272-5.527 5.982v3.67c0 .802.21 1.55.553 2.217v-2.752c1.643-.675 1.867-4.17 4.173-4.17h.566c1.024.778 2.678 1.49 4.993.815l-2.388-.816h1.175c2.304 0 3.205 2.678 4.173 4.17v2.753c.304-.593.49-1.25.527-1.953.005-.09.026-.175.026-.265v-3.67c0-2.71-2.82-5.98-5.527-5.98M35.51 169.167c-.24 1.22-.392 1.974-.392 1.974l-.547.575c-.464-.584-1.172-.965-1.976-.965-.953 0-1.773.53-2.21 1.305l-.722-.914c.123-.8.185-1.64.197-2.54 0 3.665-1.98 5.945-2.93 9.038-.84 2.734-.39 4.835.48 4.835h8.1c1.56-1.563 0-10.196 0-13.303v-.003zm29.88-.567c.012.898.072 1.74.194 2.54l-.722.914c-.437-.774-1.256-1.306-2.21-1.306-.803 0-1.512.382-1.977.965l-.548-.573-.39-1.974v.002c0 3.107-1.563 11.74 0 13.302h8.1c.87 0 1.317-2.1.478-4.834-.948-3.092-2.926-5.373-2.926-9.037" fill="#666"/><path d="M60.014 77.177l1.294-15.967.005-.05-.257-3.098-.825-9.964-.43-5.227-2.34-1.242-.123-.064c0 5.61-4.658 11.825-9.706 11.836h-.013c-5.046-.012-9.705-6.227-9.705-11.837l-.12.064-2.342 1.244-.433 5.23-.825 9.963-.257 3.097.004.05 1.294 15.967-1.642 10.15h28.064l-1.64-10.15zm1.643 10.153H33.59l-2.525 12.35s-2.937 12.782-2.452 22.57l1.512-.02 13.015-.187 2.067-.028 1.997-14.562h.842l1.997 14.562 2.067.028 13.016.186 1.51.02c.485-9.787-2.452-22.57-2.452-22.57l-2.527-12.35z" fill="#666"/><path fill="#E5E5E5" d="M24.372 97.012c1.26-2.29 3.523-9.804 4.387-13.374.67-2.78 1.61-8.13.88-11.006 1.747-1.765 3.785-5.91 4.21-12.39l.09.968-.006-.05.257-3.098.826-9.964.433-5.227 2.34-1.242c-2.314 1.222-4.56 2.424-4.807 2.61 0 0-4.805.936-4.763 9.444.003.42.048.797.123 1.144-.898 1.785-2.346 5.232-2.768 9.586-.327 3.39-.18 5.748.305 7.233-1.33 1.187-2.698 3.59-3.17 7.75-.767 6.777-1.212 14.628-1.536 17.545l-2.056 6.717.477 12.45s1.025.067 1.444-2.488c.563-3.463.435-7.34.435-7.34l.84-2.16c.744-.127-.087 5.22 1.063 5.03 1.298-.215 1.238-5.56 1.066-7.842-.112-1.493-.098-3.25-.074-4.295m5.838 25.685h-.004l.02.082c.083.33.145.638.19.93.408 2.585-.502 3.918-.893 7.482-.44 4 .044 4.554-.685 8.845v.01c-1.033 4.37-1.28 9.95-.613 14.292.98 6.37 1.69 10.762 1.64 14.26-.015.9-.075 1.74-.198 2.54l.724.915c.436-.775 1.256-1.307 2.21-1.307.803 0 1.51.38 1.977.964l.547-.574s.152-.753.392-1.973c.773-3.95 2.47-12.826 2.922-17.08.25-2.352.63-6.453.434-10.263.764-3.7 1.658-5.554 1.742-7.607.084-2.053-.248-4.89 1.356-9.184l.006-.02c.415-.927.806-1.92 1.168-2.97l-13.016.188c.026.16.055.312.084.468m27.126-81.133c-2.07-1.093-4.16-2.186-4.903-2.575l-.136-4.415h-.007c.847-.98 1.433-2.334 1.583-3.547.05.01.097.02.16.01 1.365-.245 1.594-3.726 1.323-4.774-.27-1.05-.823 0-.823 0l-.093.26c-.038.703-.223 1.36-.525 1.955v-2.754c-.97-1.492-1.87-4.17-4.174-4.17h-1.173l2.39.816c-2.317.674-3.972-.04-4.994-.818h-.567c-2.306 0-2.53 3.496-4.173 4.17v2.755c-.342-.668-.553-1.415-.553-2.218v-.024c-.077-.134-.563-.94-.81.027-.272 1.05-.043 4.53 1.322 4.775.032.004.054-.006.082-.006.17 1.366.89 2.905 1.912 3.896l-.32 4.04c-.708.37-2.84 1.486-4.946 2.598 0 5.61 4.66 11.825 9.706 11.836h.014c5.05-.012 9.706-6.226 9.706-11.837m15.2 37.827c-.47-4.156-1.84-6.562-3.17-7.75.485-1.484.634-3.843.307-7.232-.422-4.354-1.87-7.8-2.768-9.586.076-.347.12-.725.122-1.144.042-8.508-4.763-9.444-4.763-9.444-.246-.186-2.492-1.387-4.806-2.61l2.34 1.245.434 5.23.824 9.964.257 3.097-.004.05c.027-.323.057-.645.087-.965.424 6.48 2.462 10.624 4.21 12.39-.73 2.875.21 8.225.882 11.005.862 3.57 3.125 11.082 4.385 13.373.023 1.043.038 2.803-.074 4.295-.17 2.284-.23 7.626 1.068 7.842 1.15.19.318-5.157 1.064-5.028l.84 2.158s-.13 3.876.435 7.338c.418 2.556 1.444 2.487 1.444 2.487l.477-12.45-2.055-6.716c-.325-2.92-.77-10.77-1.538-17.55"/><path fill="#E5E5E5" d="M66.413 140.037c-.73-4.29-.246-4.844-.685-8.846-.39-3.554-1.3-4.887-.897-7.46.05-.304.113-.625.2-.968.005-.02.008-.04.016-.062h-.005c.03-.154.06-.308.087-.468l-13.017-.185c.36 1.048.752 2.04 1.168 2.967.002.007.002.013.006.02 1.604 4.295 1.27 7.13 1.355 9.185.083 2.052.977 3.906 1.74 7.606-.195 3.81.184 7.91.435 10.265.453 4.253 2.148 13.13 2.92 17.08.24 1.217.394 1.972.394 1.972l.546.574c.465-.582 1.173-.965 1.978-.965.952 0 1.772.53 2.208 1.306l.724-.914c-.123-.798-.184-1.64-.196-2.54-.05-3.497.66-7.888 1.64-14.26.667-4.346.42-9.927-.615-14.297v-.006z"/></svg>