<svg xmlns="http://www.w3.org/2000/svg" width="93.21" height="182.471" viewBox="0 0 93.21 182.471"><path d="M47.986 32.404h-2.743c-2.71 0-5.53 3.272-5.53 5.982v3.668c0 .804.213 1.55.554 2.22V41.52c1.644-.674 1.868-4.17 4.174-4.17h.568c1.024.78 2.678 1.492 4.993.816l-2.387-.816h1.175c2.304 0 3.206 2.677 4.173 4.17v2.753c.304-.593.49-1.25.528-1.953.004-.09.025-.175.025-.266v-3.668c0-2.71-2.816-5.982-5.526-5.982m-38.874 139.8c-.323-.908-1.145-1.595-2.167-1.683-1.207-.103-2.283.65-2.638 1.755.26-1.27.59-2.67.978-4.214-2.453 3.415-3.392 5.897-4.58 8.83-1.076 2.65-.81 5.486.054 5.562.61.054 1.34-.067 2.104 0h-.002H8.02c.5.044.808 0 .808 0 1.43-1.198 1.08-7.602 1.1-11.434-.31.455-.586.856-.815 1.188m83.587 4.978c-1.02-3.068-3.455-6.79-4.107-9.944l-.083-.024c.61 2.054 1.005 3.915.972 5.695-.03-1.402-1.193-2.514-2.597-2.48-1.224.026-2.225.915-2.44 2.072l-.625-.906c-.27 3.854-.837 9.423.415 10.618l.812-.018 3.714-.084c1.27-.03 2.575-.06 3.575-.08.866-.02 1.27-2.132.366-4.846M60.774 72.685v-.005l-.062-.547L58.93 56.01l-.162-1.466v-.003l-2.386.317c0 .188-.018.375-.027.564-.058 1.05-.27 2.09-.612 3.1-1.436 4.217-5.124 7.748-9.065 7.748-3.942 0-7.63-3.53-9.067-7.748-.342-1.01-.554-2.052-.61-3.1-.01-.19-.03-.376-.03-.563l-2.38-.316v.005l-.163 1.466-1.783 16.126-.06.55v.01L32.7 90.64l-1.04 6.846h30.033l-1.04-6.845.12-17.954zm3.318 35.2l-2.398-10.4H31.66l-2.4 9.425s-3.554 8.717-6.764 20.13l.536.02.006.003.884.04 14.34.643 3.612.162 4.502-8.344h.602l4.502 8.344 3.614-.162 14.34-.644.884-.04h.005l.534-.023c-3.21-11.415-6.765-19.156-6.765-19.156" fill="#666"/><path fill="#E5E5E5" d="M23.038 127.063l-.007-.002c-.06.285-.116.56-.167.83-.653 2.52-2.015 3.386-3.785 6.495-1.988 3.5-1.767 4.197-4.136 7.85-2.684 3.603-5.126 8.63-6.236 12.884-1.36 5.21-2.536 9.442-3.418 12.942-.39 1.546-.718 2.945-.978 4.215.354-1.104 1.43-1.86 2.638-1.753 1.022.088 1.844.773 2.167 1.682.23-.332.504-.732.815-1.188 2.43-3.553 7.06-10.402 9.043-13.914 1.165-2.062 3.14-5.678 4.47-9.254 2.17-3.092 3.726-4.44 4.617-6.29.89-1.852 1.71-4.587 4.888-7.892.006-.006.01-.01.014-.018 1.78-1.63 3.577-3.69 5.302-5.903l-14.34-.644-.884-.037zm-2.415-78.24c.01.018.016.032.024.05.624 2.033 1.586 4.307 3.02 6.77.826 1.417 1.688 3.53 2.417 5.427.203.687.478 1.4.805 2.12 0 .005 0 .01.003.015.047.124.098.23.15.32C28.683 67 31.39 70.56 32.54 72.01c.015.23.027.456.04.688v-.01l.062-.55 1.783-16.125.163-1.465c-.625-.103-1.344-.136-2.158-.074v-.006s-1.153-4.564-3.905-10.432c-.378-.805-.765-1.488-1.155-2.083l-2.487-6.49c.91-1.03 1.83-2.423 2.674-4.288 2.035-4.505 4.08-9.6 5.512-13.083 1.29-3.103 3.922-4.188 3.922-4.188l-.006-.006c.373-.08.77-.193 1.197-.36.91-.35 1.935-.736 4.35-1.682l1.092-.333c.334-.102.522-.454.422-.79-.104-.334-.456-.523-.792-.42l-2.296.697c-1.695.393-1.454-.896-1.46-1.12l4.186-6.953c.18-.3.084-.688-.217-.868-.3-.184-.69-.087-.87.214l-2.96 4.91c-.08-.23-.173-.432-.277-.617l3.03-5.033c.182-.3.083-.688-.218-.87-.298-.18-.687-.083-.868.215L38.48 5.58c-.156-.108-.316-.2-.482-.277l2.615-4.34c.18-.304.084-.69-.22-.872-.296-.18-.687-.08-.87.216l-2.82 4.69c-.24-.014-.462-.008-.655.005l2.016-3.345c.182-.3.084-.69-.216-.868-.3-.18-.69-.086-.87.214l-2.664 4.424c-.004.01-.01.02-.02.03-.283.473-1.78 3.43-1.61 5.18-.184 1.664-.214 1.276-1.55 3.487v.006c-2.014 2.07-6.197 8.14-8.034 11.15-1.727 2.826-4.84 8.807-4.108 11.442l-.078.035s-1.335 5.25 1.71 12.07m35.73 6.597c.012-.188.03-.376.03-.562-.787-.368-1.565-.746-2.252-1.107-1.544-.81-2.4-1.534-2.743-1.86l-.05-1.52h-.006c.846-.98 1.433-2.333 1.582-3.547.05.01.1.022.16.01 1.368-.245 1.595-3.725 1.323-4.774-.27-1.05-.82 0-.82 0s-.04.1-.095.26c-.038.703-.224 1.36-.527 1.954V41.52c-.968-1.493-1.87-4.17-4.174-4.17H47.61l2.39.816c-2.315.677-3.97-.037-4.993-.815h-.567c-2.305 0-2.53 3.498-4.173 4.173v2.752c-.34-.668-.553-1.415-.553-2.218v-.023c-.075-.134-.56-.94-.81.026-.27 1.05-.04 4.53 1.324 4.773.032.006.054-.005.082-.005.17 1.366.89 2.905 1.913 3.895l-.078.986c-.015.015-.85.95-2.926 2.04-.688.36-1.466.74-2.25 1.108 0 .185.016.373.027.56.057 1.05.268 2.093.61 3.1 1.438 4.22 5.125 7.75 9.068 7.75 3.94 0 7.63-3.53 9.065-7.75.345-1.007.557-2.05.614-3.1M89.48 172.91c.034-1.778-.36-3.642-.97-5.693-1.003-3.36-2.592-7.23-3.862-12.1-1.11-4.254-3.553-9.28-6.237-12.886-2.365-3.65-2.143-4.347-4.134-7.845-1.777-3.125-3.143-3.983-3.792-6.53-.048-.26-.103-.522-.162-.792h-.004l-.884.04-14.338.645c1.722 2.21 3.52 4.272 5.3 5.902.006.005.01.01.015.018 3.177 3.305 3.996 6.04 4.887 7.892.893 1.85 2.447 3.198 4.617 6.292 1.332 3.575 3.305 7.188 4.47 9.25 2.097 3.714 7.15 11.16 9.437 14.492l.626.908c.217-1.158 1.217-2.047 2.44-2.073 1.403-.036 2.565 1.076 2.596 2.48M49.73 11.52l1.092.334c2.416.946 3.438 1.332 4.35 1.683.428.165.825.28 1.196.36l-.006.005s2.65 1.09 3.936 4.215c1.432 3.484 3.473 8.563 5.5 13.055.842 1.865 1.764 3.257 2.674 4.287l-2.486 6.49c-.393.593-.778 1.276-1.156 2.08-2.752 5.868-3.906 10.433-3.906 10.433v.005c-.812-.06-1.532-.028-2.154.074l.16 1.467 1.784 16.123.06.546c.015-.227.027-.45.04-.673 1.154-1.448 3.86-5.012 5.5-8.486.05-.105.1-.21.147-.316.334-.732.613-1.455.818-2.152.728-1.893 1.587-3.997 2.41-5.41 1.435-2.462 2.395-4.736 3.02-6.77.008-.017.016-.03.023-.05 3.046-6.818 1.71-12.07 1.71-12.07l-.077-.034c.73-2.637-2.382-8.617-4.108-11.443-1.838-3.01-6.02-9.08-8.035-11.15v-.007c-1.336-2.21-1.366-1.823-1.552-3.486.172-1.75-1.325-4.708-1.61-5.18l-.02-.03L56.376 1c-.18-.3-.57-.395-.872-.214-.3.18-.396.57-.216.868L57.304 5c-.192-.013-.414-.02-.654-.005L53.828.305c-.18-.297-.57-.394-.87-.214-.3.183-.396.57-.217.873l2.618 4.34c-.165.077-.328.17-.484.28l-2.83-4.7c-.18-.297-.57-.394-.867-.215-.3.182-.398.57-.218.87l3.03 5.033c-.106.187-.198.39-.28.618l-2.956-4.91c-.18-.3-.57-.396-.87-.214-.3.18-.396.57-.216.868l4.187 6.954c-.01.224.23 1.512-1.462 1.12l-2.297-.7c-.334-.102-.688.087-.79.422-.1.336.087.688.423.79"/></svg>