<svg xmlns="http://www.w3.org/2000/svg" width="163.666" height="43.58" viewBox="0 0 163.666 43.58"><path fill="#E5E5E5" d="M150.677 19.95c.83-.382 3.065-2.72 4.353-2.076.586.293 3.192-1.497 4.442-2.808l-.002.003s-.347-6.13-6.394-4.565c0 0 1.194-.866-.063-2.27-1.258-1.404-4.843-.18-4.843-.18l-4.05-.757c-1.424.546-7.567-2.347-7.567-2.347l-1.207 9.94c2.504-1.86 5.627-.68 7.297-.184.45.133.777.52.84.986l.202 1.53c.16 1.176 1.29 1.428 2.595 1.244.35-.05.713.192 1.158.353.295.104.275-.874.275-.874s.61 1.42.86 1.154c.165-.176.452-.264.78-.074.512.298.7 1.21 1.324.924m-19.044-5.18c-3.135.428-6.022-1.767-6.45-4.902-.43-3.135 1.766-6.023 4.9-6.45 3.136-.43 6.024 1.765 6.452 4.9s-1.765 6.023-4.902 6.452"/><path d="M159.47 15.068s3.03-2.4 2.102-6.745c-.258-1.202-.697-2.21-1.25-3.06.63.145 1.326.08 1.993-.324.755-.46 1.25-1.3 1.27-2.184.04-1.788-1.56-3.04-3.203-2.702-1.428.293-2.348 1.67-2.084 3.095-2.154-1.534-4.823-1.82-6.595-1.294-4.063 1.21-7.582 5.442-7.582 5.442l3.837 1.634c.325.14.695.115.995-.068.944-.58 3.096-1.71 4.063-.63.698.777.402 1.703.003 2.374-.198.33.092.73.474.68 5.01-.65 5.98 3.778 5.98 3.778" fill="#666"/><path fill="#E5E5E5" d="M15.72 23.058L6.455 25.52l.615 4.506 9.488-.83z"/><path d="M63.252 28.03s22.908 2.12 39.343-2.327l-2.02-14.79c-4.93-1.187-8.13-3.084-11.965-3.124-6.76-.073-10.224 3.662-10.224 3.662l-16.87 5.206c-3.712 1.137-13.273-2.025-22.458-.342s-23.34 6.74-23.34 6.74l.838 6.138s19.592-1.764 46.696-1.167m50.394-20.754c-5.045 2.08-8.1 3.524-13.07 3.64l2.02 14.79c5.257-1.26 13.882-2.02 13.882-2.02s1.673 1.872 3.874 2.327c2.2.455 4.39.29 7.088-2.955 1.33-1.6 8.925-8.486 9.334-8.876 1.513-1.44 2.213-3.636 1.908-5.864-.53-3.874-4.063-6.17-7.972-6.058-3.772.11-8.942 1.665-17.064 5.013M11.406 33.628c.78-1.464 1.325-3.044.99-4.062-.57-1.748-2.176.092-3.21-2.275-.81-1.858 1.08-2.63.614-3.68-.667-1.51-8.315.272-9.8 4.032l1.93 4.427s1.94 1.405 2.787 6.387c.29 1.697 1.182 5.122 2.38 5.122h5.198c2.75-.23 2.818-1.067 2.906-1.915.11-1.05-1.47-1.166-2.85-2.082 0 0-1.72-4.493-.942-5.957" fill="#666"/><path fill="#E5E5E5" d="M135.188 36.85c-.075-.574.84-22.452 1.1-24.234.858-5.836-1.507-8.407-4.896-8.452-2.325-.03-5.47 1.468-5.526 5.74-.058 4.58 1.388 23.045 1.996 26.588.61 3.543-.646 8.158 7.485 6.436 9.072-1.92 17.197-2.802 17.197-2.802 3.116.224 5.57.68 6.927.68h2.91c.712 0 1.29-.58 1.29-1.29 0-.437-.22-.82-.55-1.052.33-.234.548-.617.548-1.053s-.217-.816-.547-1.05c.33-.233.548-.616.548-1.052s-.217-.818-.547-1.052c.33-.234.548-.618.548-1.052 0-.713-.576-1.29-1.29-1.29-.036 0-.072.01-.108.012-.4-.006-.98-.022-3.384.002-2.812.03-4.372 2.958-6.057 3.3h-.003c-6.868-.275-14.457.423-22.168-.728"/></svg>