<svg xmlns="http://www.w3.org/2000/svg" width="160.293" height="57.438" viewBox="0 0 160.293 57.438"><g fill="#E5E5E5"><path d="M34.514 56.18zM53.157 10.245l-5.66-2.52s-7.628-3.343-10.423-4.84C34.28 1.386 32.378 1.47 31.962 1.8s-6.796 8.754-6.796 8.754l1.457 3.126-2.798 2.016s1.002 7.234 1.457 9.954c-.166 5.78-.358 13.46-.396 19.197-.194 1.17-.555 4.282.114 7.126.017.2.035.38.055.516.105.696.372 1.235.73 1.668.956 1.85 2.64 3.223 5.51 3.27.014 0 .023.003.04.003h1.926l.006.002c.688 0 1.248-.56 1.248-1.25 0-.433-.234-.794-.568-1.018.334-.225.568-.587.568-1.02 0-.432-.234-.794-.568-1.018.334-.225.568-.587.568-1.02 0-.433-.234-.794-.567-1.018.333-.225.567-.586.567-1.02 0-.69-.56-1.247-1.248-1.247-.01 0-.018.007-.028.007-.106-.006-.568-.014-2.47.005-.073 0-.133.004-.2.006.406-4.235 1.53-13.76 2.366-20.518 3.743.24 8.995.752 8.995.752l6.17.567 11.48 4.365 2.86-10.975.003-.01 2.864-10.978-12.15-1.797z"/></g><path fill="#666" d="M13.05 2.973c4.112 1.07 6.646 5.005 5.66 8.782-.986 3.778-5.117 5.973-9.23 4.898S2.835 11.65 3.82 7.87c.986-3.777 5.118-5.97 9.23-4.897M3.526 4.885C5.03 5.278 5.93 6.815 5.54 8.32s-1.932 2.406-3.436 2.013C.6 9.94-.3 8.403.09 6.9c.393-1.505 1.932-2.406 3.436-2.015"/><path fill="#E5E5E5" d="M22.6 12.63l4.594 1.2.598-4.75c-.864.75-4.21.11-6.778-.53-.57-.824-1.287-1.647-2.136-2.367.003-.013.012-.018.015-.03.3-1.39-2.91-2.96-4.007-3.114-1.098-.154-.32.78-.32.78s.16.148.415.37c-4.63-1.092-5.405 1.192-7.408 4.967-1.824 3.435-.48 6.058 4.19 7.38-.332.07-.546.122-.546.122s-1.135.432-.1.835c1.032.404 4.6.603 5.016-.758.01-.035.002-.062.005-.094 1.214-.268 2.35-.735 3.324-1.276 2.948.843 6.747 2.122 7.14 3.213l.595-4.75-4.596-1.2c-.002 0 0 0 0 0z"/><path fill="#666" d="M47.493 7.74C43.58 8.542 31.206 2.7 31.206 2.7l-1.582 1.82c5.168 1.977 6.327 8.087 5.47 11.377-.86 3.288-4.855 8.055-10.33 7.253l.653 2.755s13.486.554 16.51 3.168l6.172.567s12.205 6.46 18.89 5.732c9.837-1.07-4.55-12.342-4.55-12.342l5.027-11.216-14.312-1.56-5.662-2.514z"/><path fill="#E5E5E5" d="M141.646 51.483c.903.163 2.345.464 3.13.72l1.046-.58c-.713-.566-1.11-1.483-.952-2.446.134-.812.636-1.466 1.303-1.838l-.487-.65s-2.03.266-3.22-.18l-.82 4.972"/><path fill="#666" d="M143.686 46.585l-.02.18c.816.175 2.02-.074 2.02-.074l.486.648c-.666.372-1.17 1.024-1.304 1.838-.157.963.24 1.88.952 2.447l-1.045.58c-.786-.257-.866-.108-1.72-.453 3.75 1.515 4.863 2.818 7.83 4.292 2.622 1.307 4.82 1.2 4.964.323.1-.62.222-1.36.35-2.134l.86-5.23.137-.818c-1.318-1.84-10.23-1.984-13.51-1.597M57.678 33.835s28.26 13.19 51.722 10.72l2.615-7.515s-25.457-9.09-36.26-11.73l-16.23-2.68-1.847 11.205zm47.955 9.578s9.708 5.597 16.1 6.018c6.393.42 19.914 2.055 19.914 2.055l.817-4.972s-23.52-8.35-30.45-9.47c-6.93-1.125-6.38 6.37-6.38 6.37"/><path fill="#E5E5E5" d="M145.512 36.332c.864.31 2.264.77 3.073.938l.616 1.02c-.897.14-1.702.734-2.046 1.648-.29.77-.178 1.586.214 2.242l-.746.317s-1.625-1.242-2.88-1.45l1.77-4.718"/><path fill="#666" d="M144.838 41.593l.07-.163c.798.255 1.714 1.07 1.714 1.07l.745-.318c-.393-.656-.502-1.474-.213-2.243.343-.916 1.146-1.512 2.047-1.65l-.616-1.02c-.81-.17-.805-.342-1.716-.47 4.005.56 5.622-.016 8.927.186 2.926.18 4.775 1.365 4.465 2.197l-.76 2.024-1.86 4.962c-.184.48-.294.78-.294.78-2.062.933-9.856-3.386-12.508-5.36M61.372 11.627s25.772-1.158 44.877 12.687l9.58 2.56-1.688 7.714s-6.43-1.23-10.37-2.1c-7.296-1.612-21.316-4.27-28.425-6.334l-16.474.422 2.5-14.95zm46.646 13.533s13.46.196 19.21 3.02c5.75 2.825 18.284 8.15 18.284 8.15l-1.77 4.72s-24.55-4.492-31.116-6.978c-6.567-2.485-4.61-8.91-4.61-8.91"/><path fill="#E5E5E5" d="M61.698 11.427c-3.664-.21 12.396 2.614 15.004 2.39.453.187 1.047.44 1.69.73.726.325 2.36.665 3.027.984 2.364 1.136 5.832 2.92 6.062 1.67.09-.473-.65-.664-1.496-1.247-.1-.067-.198-.136-.303-.2l.724.287h.002c.03.006 1.223.23 3.044.652.726.17 1.55.37 2.442.6.338.088.62.14.88.17 1.53.188 1.78-.462 1.78-.462l-9.22-3.968-7.25-1.275c-2.8-.88-11.778-5.058-17.828-5.574 0 0-10.552-4.823-17.756-6.02-4.517-.748-10.84 1.252-11.298 2.54l15.14 5.987s8.586 2.352 15.354 2.737"/></svg>