<svg xmlns="http://www.w3.org/2000/svg" width="159.374" height="125.741" viewBox="0 0 159.374 125.741"><path d="M83.76 75.553s-.8.245-6.747.146c-1.794-.03-3.246-.06-4.952-.075-1.972-.015-4.285-.01-7.872.045-3.55.054-6.82.77-6.82.77l.363 14.867.105 4.247c5.615-.13 12.186 1.66 21.626 2.68 17.26 1.863 21.97-9.374 21.97-9.374L83.76 75.553zm15.146-62.546h-2.743c-4.692 0-7.323 4.945-6.333 7.277l.172 1.308c.092-4.22 2.065-4.236 2.065-4.236l.816.075c.01.324.027.604.048.86.225 2.7 1.066 2.074 2.406 3.076 1.48 1.105 1.37 2.74 1.37 2.74h.83s.487-1.842 2.017-1.842c.58 0 1.004.335 1.28.774.258.41.39.908.39 1.31 0 .49.572 1.568 1.022 2.34.11.19.212.36.297.498.143.23.237.377.237.377l.357.93.416 1.07.572.027.433.017c0-1.57 2.75-4.937 2.75-7.412l-.02-.033c.31-5.543-3.265-9.155-8.38-9.155M159.374 40.05l-5.858-.977-6.396 41.007h-36.57v9.822s-.104.044-.25.09l-1.704 35.75h4.882l.53-11.133h35.138l.464 11.13h4.883l-1.823-43.66 6.704-42.03zm-45.234 71.8l1.226-25.73h32.59l1.074 25.73h-34.89zm-6.948-59.665c-1.433 5.528-5.15 9.34-8.663 8.674-5.86-1.11-5.87-6.3-4.697-12.477 1.17-6.178 5.172-10.604 8.938-9.89.196.038.383.096.57.157.27.093.536.205.787.35.1.057.193.13.29.19.055.004.11.008.17.01.568.04 1.145.104 1.726.194-.77-.838-1.696-1.475-2.83-1.79-.974-.27-1.883-.275-2.74-.097-1.198.248-2.288.878-3.287 1.744-.56.49-1.093 1.05-1.6 1.655-2.498 2.675-4.804 5.538-4.804 5.538l-3.393 4.865-3.9 24.245 17.67 13.306c.536-3.32 1.762-10.63 2.59-14.996 1.32-6.964 3.37-8.367 5.4-19.094.117-.616.203-1.223.266-1.826-.87-.243-1.708-.498-2.495-.76m-79.45 64.733c-1.124-.402-1.903.953-3.197-.205-1.784-1.597-.673-2.86-1.44-4.02-.09-.133-.198-.267-.345-.397-1.42-1.27-4.63-.38-6.57-.51-3.992-.26-6.783-2.26-7.427-2.898-2.08-2.062-6.3-1.01-2.046 3.75l2.952 2.644s2.73 2.444 3.373 3.023c.643.576 1.73.36 2.395.954.662.59 1.87 2.862 1.47 2.506l4.45 3.98c4.176-.236 8.34-7.102 7.137-8.315-.27-.275-.517-.427-.75-.51" fill="#666"/><path fill="#E5E5E5" d="M42 80.196c-.24.2-.402.436-.533.685-3.194 4.266-8.48 15.247-18.364 31.814.768 1.16-.344 2.423 1.44 4.02 1.294 1.158 2.072-.197 3.197.205 3.15-4.118 9.77-8.638 13.673-13.117 5.788-6.648 5.074-8.888 5.75-14.854.306.12.612.23.914.3 3.354.804 6.587 1.486 9.653 2.06l-.364-14.87s3.27-.714 6.82-.77c3.587-.054 5.9-.06 7.874-.043-13.92-.772-27.718 2.63-30.06 4.57m84.638-30.132l-.087-.094c-.19-.194-.32-.293-.32-.293-6.166-4.886-10.626-7.228-13.895-8.223-1.445-.875-3.225-1.508-5.05-1.884-.862-2.1-1.817-3.972-2.65-5.428l-.687-2.096c0-1.256.1-2.04.176-2.457l-.57-.027-.415-1.07-.36-.93s-.095-.147-.236-.38c-.086-.136-.187-.308-.298-.495-.45-.775-1.022-1.853-1.022-2.342 0-.403-.13-.902-.39-1.31-.275-.44-.7-.774-1.28-.774-1.528 0-2.018 1.84-2.018 1.84h-.83s.112-1.634-1.368-2.74c-1.34-1-2.182-.375-2.404-3.076-.02-.256-.036-.534-.047-.857l-.818-.075s-1.974.015-2.065 4.236c-.01.435-.005.898.03 1.427.13 1.984-.84 3.173-1.008 3.512-.167.34-.526 1.16.657 1.18 1.18.02.38.64.38.64s.075 1.03.518.926c0 0-.395.27.02.823.42.55.063.35.083 1.626.02 1.272.19 1.438 1.303 1.588 1.108.15 3.09.394 3.09.394l.156 3.14-.248 1.638-7.324 12.82 3.393-4.864s2.306-2.863 4.804-5.538c.506-.606 1.04-1.166 1.6-1.654 1-.865 2.09-1.495 3.287-1.743.856-.18 1.766-.173 2.74.097 1.133.314 2.06.95 2.83 1.79-.58-.092-1.158-.155-1.727-.194l-.17-.01c-.097-.062-.19-.135-.29-.19l-.788-.35c-.187-.062-.373-.12-.568-.157-3.766-.714-7.768 3.712-8.938 9.89-1.172 6.175-1.162 11.364 4.695 12.475 3.51.667 7.23-3.145 8.663-8.673.786.26 1.624.516 2.494.76 2.784.786 5.87 1.457 8.49 1.855-6.003 8.664-10.81 24.886-10.81 24.886l.05.006c-.03.147-.052.284-.048.39.052 1.174 1.244 8.524 1.607 9.458.26.668.95.565 1.32.452.148-.045.25-.088.25-.088V80.08h2.902c.92-.005 1.08-.095 1.075-1.158-.003-.942-1.4-2.297-.517-4.832 3.066-6.55 5.354-7.932 9.87-12.566 6.29-6.45 3.844-10.288 2.76-11.46"/></svg>