<svg xmlns="http://www.w3.org/2000/svg" width="159.374" height="125.741" viewBox="0 0 159.374 125.741"><path d="M68.788 63.59c-1.504.97-2.728 1.752-4.148 2.685-1.652 1.086-3.574 2.376-6.53 4.42-2.923 2.017-5.243 4.428-5.243 4.428l8.548 12.166 3.005 4.275c4.595-3.23 11.755-7.805 18.926-10.6 9.032-3.52 10.426-11.592 10.426-11.592L76.844 58.707s-3.055 1.66-8.056 4.883M98.435 0h-2.743C91 0 88.37 4.946 89.36 7.28l.172 1.306c.09-4.222 2.063-4.237 2.063-4.237l.818.074c.01.32.025.6.047.858.222 2.7 1.063 2.073 2.404 3.076 1.48 1.104 1.37 2.74 1.37 2.74h.83s.486-1.842 2.018-1.842c.58 0 1.002.336 1.278.772.26.41.39.91.39 1.313 0 .49.573 1.567 1.023 2.34.108.188.212.36.297.498l.235.378.36.928.414 1.072.57.024.433.02c0-1.573 2.748-4.938 2.748-7.413l-.02-.034C107.123 3.613 103.55 0 98.436 0M153.515 38.57l-6.395 41.006h-35.995v9.822s-.414.19-.83.164l-1.7 35.675h4.883l.53-11.132h35.137l.464 11.132h4.88l-1.82-43.66 6.704-42.03-5.86-.978zm-39.375 72.775l1.226-25.73h32.59l1.074 25.73h-34.89zm-11.41-86.682c-1.117-.525-2.203-.656-3.258-.515-.42.057-.837.153-1.248.294-.583.2-1.155.48-1.714.82v-.002l-.004.003c-.552.335-1.094.723-1.62 1.155-.078.064-.154.133-.23.198-2.918 2.213-5.678 4.644-5.678 4.644l-4.17 4.216-.72 2.106-7.243 21.125 16.927 10.667c1.093-3.18 1.768-4.727 3.324-8.89 1.903-5.083 3.56-7.382 5.41-10.843-.646-1.47-1.335-3.23-1.977-5.073-2.12 2.036-4.56 2.944-6.636 2.168-5.583-2.09-4.71-7.205-2.508-13.09 2.204-5.888 6.9-9.57 10.488-8.228 1.75.655 2.908 2.39 3.387 4.674.348.374.676.77.974 1.19.17.192.364.42.577.675-.227-2.022-.77-3.928-1.813-5.368-.587-.81-1.326-1.478-2.27-1.923m-80.04 91.7c-1.035-.222-1.8.94-3.03-.157-1.77-1.587-.684-2.843-1.423-3.996-.09-.14-.205-.28-.36-.42-1.418-1.27-4.63-.38-6.568-.51-3.992-.26-6.783-2.26-7.427-2.897-2.08-2.062-6.307-1.012-2.05 3.75l2.95 2.644 3.374 3.02c.645.576 1.732.36 2.396.954.663.59 1.872 2.865 1.473 2.507l4.448 3.98c4.178-.236 8.34-7.102 7.138-8.315-.336-.338-.637-.497-.92-.556" fill="#666"/><path fill="#E5E5E5" d="M58.108 70.694c2.958-2.043 4.88-3.333 6.53-4.42-12.006 7.096-21.592 17.592-22.46 20.51-4.02 3.136-8.94 9.366-23.943 25.427.74 1.155-.347 2.41 1.425 3.997 1.23 1.1 1.993-.063 3.03.158 3.153-4.025 12.107-7.48 17.536-11.615 7.01-5.34 6.767-7.675 8.634-13.38 1.218.06 2.413-.07 3.4-.437 3.228-1.194 6.29-2.42 9.153-3.645l-8.548-12.166s2.322-2.412 5.243-4.428m55.102-14.248c-.427-2.59-1.406-4.753-2.508-6.49 1.85-9.927-1.728-15.368-3.793-17.886-.16-1.725-.453-3.414-.813-5l.004.004-.01-.04c-.8-3.507-1.915-6.468-2.617-7.992 0-1.256.1-2.04.176-2.46l-.57-.024-.415-1.07-.36-.93s-.094-.146-.236-.377c-.086-.137-.19-.31-.297-.496-.45-.773-1.023-1.85-1.023-2.34 0-.402-.13-.902-.39-1.312-.275-.436-.697-.772-1.277-.772-1.53 0-2.02 1.84-2.02 1.84h-.83s.11-1.633-1.368-2.74c-1.34-1-2.183-.374-2.404-3.075-.02-.256-.036-.537-.045-.857l-.818-.076s-1.973.014-2.064 4.237c-.01.433-.006.895.03 1.423.13 1.987-.84 3.175-1.008 3.515-.168.34-.526 1.16.656 1.18 1.18.018.38.642.38.642s.077 1.027.52.924c0 0-.397.272.02.823.417.55.06.354.082 1.63.02 1.27.19 1.435 1.303 1.586 1.11.15 3.09.393 3.09.393l.094 1.896-.498 1.486-9.393 11.39 4.17-4.216s2.76-2.43 5.677-4.644c.075-.065.152-.135.23-.197.527-.435 1.068-.82 1.62-1.155 0-.002.003-.003.004-.004.56-.337 1.13-.62 1.714-.82.41-.14.827-.233 1.248-.292 1.056-.14 2.142-.01 3.258.516.943.444 1.684 1.112 2.27 1.924 1.043 1.44 1.586 3.346 1.814 5.37-.213-.258-.41-.484-.577-.678-.3-.42-.626-.814-.974-1.19-.477-2.283-1.635-4.02-3.385-4.673-3.59-1.344-8.284 2.34-10.488 8.228-2.204 5.886-3.076 11 2.508 13.09 2.074.776 4.516-.133 6.633-2.17.644 1.843 1.33 3.607 1.98 5.077.695 1.59 1.34 2.84 1.807 3.465.14.188.288.35.44.5.77 7.417 3.192 17.58 4.48 22.664-.69 1.366-1.314 2.694-1.288 3.307.05 1.175 1.243 8.524 1.606 9.46.15.386.447.507.742.525.415.026.83-.163.83-.163v-9.822h2.902c.918-.005 1.078-.095 1.075-1.158-.002-.437-.3-.967-.532-1.653.562-2.526-.17-13.073-1.36-20.318"/></svg>